# xmcd
#
# Track frame offsets:
#	150
#	40223
#	67198
#	100147
#	120675
#	151977
#	180658
#	209273
#	246125
#	278836
#	305647
#
# Disc length: 4793 seconds
# Revision: 0
# Processed by: cddbd v1.5.2PL0 Copyright (c) Steve Scherf et al.
# Submitted via: dBpowerAMP V12.0
#
DISCID=9c12b70b
DTITLE=Gov't Mule - The Georgia Bootleg Box Radio Sampler
DYEAR=2012
DGENRE=Blues
TTITLE0=Blind Man in the Dark
TTITLE1=Temporary Saint
TTITLE2=Painted Silver Light
TTITLE3=Rocking Horse
TTITLE4=Mule
TTITLE5=Presence of the Lord
TTITLE6=Gameface
TTITLE7=No Need to Suffer
TTITLE8=Just Got Paid
TTITLE9=Goin OUt West
TTITLE10=Young Man Blues Medley
EXTD=
EXTT0=
EXTT1=
EXTT2=
EXTT3=
EXTT4=
EXTT5=
EXTT6=
EXTT7=
EXTT8=
EXTT9=
EXTT10=
PLAYORDER=
